<?xml version="1.0" standalone="no"?>
<!DOCTYPE svg PUBLIC "-//W3C//DTD SVG 20010904//EN"
 "http://www.w3.org/TR/2001/REC-SVG-20010904/DTD/svg10.dtd">
<svg version="1.0" xmlns="http://www.w3.org/2000/svg"
 width="1280.000000pt" height="1280.000000pt" viewBox="0 0 1280.000000 1280.000000"
 preserveAspectRatio="xMidYMid meet">
<g transform="translate(0.000000,1280.000000) scale(0.100000,-0.100000)"
fill="#000000" stroke="none">
<path d="M2570 11964 c-93 -9 -197 -29 -323 -60 -203 -50 -319 -99 -477 -201
-201 -131 -334 -255 -457 -429 -157 -222 -210 -341 -281 -629 l-37 -150 -3
-4020 c-2 -2867 0 -4044 8 -4104 14 -103 52 -269 87 -376 98 -301 320 -602
584 -792 224 -162 380 -228 704 -301 l120 -27 3975 -3 c2798 -2 4003 0 4070 8
289 33 568 128 770 263 202 135 328 254 453 431 161 228 251 456 302 766 13
84 15 541 15 4080 0 4367 5 4026 -59 4286 -61 248 -149 422 -326 649 -88 112
-172 191 -302 283 -237 169 -392 233 -753 310 -68 14 -448 16 -4055 17 -2189
1 -3996 0 -4015 -1z m7905 -174 c4 -7 -1312 -10 -3940 -10 -2628 0 -3944 3
-3940 10 4 7 1328 10 3940 10 2612 0 3936 -3 3940 -10z m-608 -1161 c89 -12
249 -71 338 -125 126 -76 286 -235 354 -353 46 -78 101 -210 122 -291 12 -47
14 -561 14 -3415 0 -3178 -1 -3363 -18 -3424 -50 -183 -143 -339 -282 -476
-140 -137 -277 -215 -476 -272 -61 -17 -212 -18 -3414 -18 -3221 0 -3352 1
-3415 18 -104 30 -227 83 -306 132 -87 54 -243 205 -301 290 -85 127 -146 281
-162 410 -15 123 -16 6564 -1 6683 16 129 84 295 170 422 39 57 200 219 257
258 44 31 196 105 268 131 33 12 87 25 120 30 93 13 6636 13 6732 0z m-8687
-239 c0 -5 -2 -10 -4 -10 -3 0 -8 5 -11 10 -3 6 -1 10 4 10 6 0 11 -4 11 -10z
m10730 -21 c0 -10 -4 -19 -10 -19 -5 0 -10 12 -10 26 0 14 4 23 10 19 6 -3 10
-15 10 -26z m-9720 -369 c0 -5 -5 -10 -11 -10 -5 0 -7 5 -4 10 3 6 8 10 11 10
2 0 4 -4 4 -10z m8690 -206 c0 -8 -5 -12 -10 -9 -6 4 -8 11 -5 16 9 14 15 11
15 -7z m-4 -6691 c-10 -10 -19 5 -10 18 6 11 8 11 12 0 2 -7 1 -15 -2 -18z
m-6 -69 c0 -8 -4 -12 -10 -9 -5 3 -10 10 -10 16 0 5 5 9 10 9 6 0 10 -7 10
-16z m1040 -563 c0 -11 -4 -23 -10 -26 -6 -4 -10 5 -10 19 0 14 5 26 10 26 6
0 10 -9 10 -19z m-10730 -22 c0 -11 -4 -17 -10 -14 -5 3 -10 13 -10 21 0 8 5
14 10 14 6 0 10 -9 10 -21z"/>
<path d="M6240 10055 c-553 -80 -1020 -319 -1411 -721 -286 -296 -486 -626
-619 -1024 -77 -231 -140 -563 -140 -737 0 -111 22 -103 -298 -103 -225 0
-282 -3 -298 -14 -19 -14 -19 -47 -19 -2111 0 -2064 0 -2097 19 -2111 17 -12
451 -14 3063 -14 3030 0 3043 0 3063 20 20 20 20 33 20 2089 0 1437 -3 2078
-11 2098 -5 15 -16 31 -22 35 -7 4 -129 8 -272 8 -143 0 -270 3 -282 6 -24 7
-21 -8 -43 229 -56 619 -351 1241 -792 1671 -369 360 -773 571 -1278 666 -139
26 -538 34 -680 13z m538 -1190 c463 -88 866 -455 1036 -943 57 -163 98 -410
74 -439 -9 -12 -230 -13 -1354 -11 -738 2 -1346 6 -1350 11 -23 23 14 259 66
417 76 234 194 425 364 595 229 227 493 355 801 389 73 8 279 -3 363 -19z
m-173 -2395 c183 -30 349 -190 400 -386 20 -77 19 -225 -1 -295 -27 -90 -73
-170 -138 -237 l-61 -64 -5 -576 -5 -577 -254 -3 c-179 -2 -258 1 -267 9 -12
9 -14 110 -14 576 l0 565 -65 70 c-164 177 -201 414 -100 633 45 99 136 194
229 241 100 49 176 61 281 44z"/>
</g>
</svg>
